<?xml version="1.0" encoding="UTF-8" standalone="no"?>
<svg
   width="500"
   height="500"
   viewBox="0 0 500 500.00001"
   version="1.1"
   id="svg10"
   sodipodi:docname="libdatovka.svg"
   xml:space="preserve"
   inkscape:version="1.4 (e7c3feb100, 2024-10-09)"
   xmlns:inkscape="http://www.inkscape.org/namespaces/inkscape"
   xmlns:sodipodi="http://sodipodi.sourceforge.net/DTD/sodipodi-0.dtd"
   xmlns="http://www.w3.org/2000/svg"
   xmlns:svg="http://www.w3.org/2000/svg"><defs
     id="defs10" /><sodipodi:namedview
     id="namedview10"
     pagecolor="#ffffff"
     bordercolor="#000000"
     borderopacity="0.25"
     inkscape:showpageshadow="2"
     inkscape:pageopacity="0.0"
     inkscape:pagecheckerboard="0"
     inkscape:deskcolor="#d1d1d1"
     inkscape:zoom="0.34690102"
     inkscape:cx="236.37866"
     inkscape:cy="36.033333"
     inkscape:window-width="1920"
     inkscape:window-height="1120"
     inkscape:window-x="0"
     inkscape:window-y="0"
     inkscape:window-maximized="1"
     inkscape:current-layer="svg10" /><g
     id="g10"
     transform="matrix(5.9848309,0,0,5.9848309,-3614.7396,2039.9593)"><path
       style="fill:#003591;fill-opacity:1;fill-rule:nonzero;stroke:none"
       d="m 678.90266,-315.0573 c -1.53515,-4.44531 -3.98437,-8.05469 -7.35156,-10.83203 -3.36328,-2.77734 -7.44922,-4.78516 -12.25,-6.02734 -4.80078,-1.24219 -9.98437,-1.86328 -15.53516,-1.86328 h -22.9375 l -3.04296,21.77734 h 22.82031 l 1.59375,-11.33984 23.83594,24.26171 -30.64063,24.26172 1.58984,-11.33984 h -22.8164 l -3.04297,21.77344 h 24.99609 c 5.16016,0 10.20703,-0.75 15.14063,-2.25 4.93359,-1.50391 9.39453,-3.71094 13.38281,-6.61719 3.98047,-2.91016 7.33203,-6.50391 10.04297,-10.78125 2.71094,-4.28125 4.46094,-9.23047 5.24609,-14.85156 0.84766,-6.33594 0.50391,-11.73047 -1.02734,-16.17188 z m 0,0"
       id="path10" /></g><path
     id="path4665"
     sodipodi:nodetypes="ssssssscssssssscssssssscssssssscs"
     style="fill:none;stroke:#0f0f0f;stroke-width:4.86391"
     inkscape:connector-curvature="0"
     d="m 203.93356,390.55521 c 16.11276,-0.58988 31.99216,16.63548 23.26069,31.2833 -7.64429,12.82376 -16.13747,26.12469 -11.70859,42.03813 4.31143,15.49285 18.04388,26.88681 34.49817,26.88681 16.45428,0 30.18513,-11.42197 34.49816,-26.91865 4.43036,-15.91785 -4.06447,-29.18307 -11.70859,-42.00684 -8.73202,-14.64781 7.14792,-31.87356 23.26013,-31.2833 36.58961,1.33954 72.42918,10.02841 108.56415,15.23039 5.13198,-36.39085 13.78576,-72.48408 15.11453,-109.33286 0.58538,-16.23631 -16.50864,-32.2376 -31.04499,-23.43914 -12.72604,7.70305 -25.92537,16.26101 -41.71802,11.79864 -15.37479,-4.3446 -26.68201,-18.18279 -26.68201,-34.76283 0,-16.58057 11.33467,-30.41684 26.71331,-34.76281 15.79648,-4.46452 28.96068,4.09559 41.68672,11.79864 14.53635,8.79901 31.63032,-7.20283 31.04499,-23.43914 -1.32932,-36.87074 -9.95207,-72.98374 -15.09861,-109.415226 -36.15034,5.186172 -71.98991,13.906556 -108.58061,15.246316 -16.11277,0.58982 -31.99216,-16.63549 -23.26014,-31.283306 7.64429,-12.823767 16.13911,-26.120847 11.70859,-42.038133 -4.31336,-15.496687 -18.04388,-26.9186525 -34.49817,-26.9186525 -16.45428,0 -30.18678,11.4258035 -34.49816,26.9186525 -4.42872,15.913448 4.0644,29.214366 11.70859,42.038133 8.73147,14.647816 -7.14792,31.873566 -23.26069,31.283306 C 167.36371,108.13781 131.54777,99.417489 95.418282,94.230324 90.271585,130.65796 81.617146,166.77481 80.287817,203.64555 c -0.585424,16.23631 16.508647,32.2376 31.045003,23.43914 12.72604,-7.70305 25.92153,-16.26321 41.71802,-11.79864 15.37864,4.34636 26.71331,18.18279 26.71331,34.76281 0,16.58059 -11.33851,30.4185 -26.71331,34.76283 -15.79264,4.46265 -28.99198,-4.09559 -41.71802,-11.79864 -14.536356,-8.79901 -31.630874,7.20283 -31.045003,23.43914 1.328609,36.84988 9.982285,72.94531 15.130465,109.34933 36.129488,-5.18721 71.945988,-13.90765 108.514728,-15.24631 z" /></svg>
